<?xml version="1.0" encoding="UTF-8"?><svg xmlns="http://www.w3.org/2000/svg" width="24px" height="24px" fill="none" stroke-width="1.5" viewBox="0 0 24 24" color="#000000"><path stroke="#000000" stroke-width="1.5" stroke-linecap="round" stroke-linejoin="round" stroke-miterlimit="1.5" d="M3 7.562A2.562 2.562 0 0 1 5.563 5H7V3h5v2h2.002A6.998 6.998 0 0 1 21 11.998v6.442a2.562 2.562 0 0 1-2.563 2.562H5.563A2.565 2.565 0 0 1 3 18.44V7.562Z" clip-rule="evenodd"></path><path stroke="#000000" stroke-width="1.5" stroke-linecap="round" stroke-linejoin="round" stroke-miterlimit="1.5" d="M12 9s3 2.993 3 4.886c0 1.656-1.345 3-3 3-1.656 0-2.988-1.344-3-3C9.01 11.992 12 9 12 9Z" clip-rule="evenodd"></path></svg>